HIERARCHY
ROOT hip
{
	OFFSET 0.000000 0.000000 0.000000 
	CHANNELS 6 Xposition Yposition Zposition Xrotation Zrotation Yrotation
	JOINT abdomen
	{
		OFFSET 0.000000 3.402643 0.000000 
		CHANNELS 3 Xrotation Zrotation Yrotation
		JOINT chest
		{
			OFFSET 0.000000 8.438565 -0.680529 
			CHANNELS 3 Xrotation Zrotation Yrotation
			JOINT neck
			{
				OFFSET 0.000000 10.207942 -0.272212 
				CHANNELS 3 Xrotation Zrotation Yrotation
				JOINT head
				{
					OFFSET 0.000000 3.130431 0.000000 
					CHANNELS 3 Xrotation Zrotation Yrotation
					End Site
					{
						OFFSET 0.000000 3.130435 0.000000 
					}
				}
			}
			JOINT lCollar
			{
				OFFSET 3.470700 6.669187 -0.816635 
				CHANNELS 3 Yrotation Zrotation Xrotation
				JOINT lShldr
				{
					OFFSET 3.198488 0.000000 0.000000 
					CHANNELS 3 Zrotation Yrotation Xrotation
					JOINT lForeArm
					{
						OFFSET 10.139888 0.000000 0.000000 
						CHANNELS 3 Yrotation Zrotation Xrotation
						JOINT lHand
						{
							OFFSET 8.370511 0.000000 0.000000 
							CHANNELS 3 Zrotation Yrotation Xrotation
							End Site
							{
								OFFSET 4.083176 0.000000 0.000000 
							}
						}
					}
				}
			}
			JOINT rCollar
			{
				OFFSET -3.470700 6.669187 -0.816635 
				CHANNELS 3 Yrotation Zrotation Xrotation
				JOINT rShldr
				{
					OFFSET -3.198488 0.000000 0.000000 
					CHANNELS 3 Zrotation Yrotation Xrotation
					JOINT rForeArm
					{
						OFFSET -10.139888 0.000000 0.000000 
						CHANNELS 3 Yrotation Zrotation Xrotation
						JOINT rHand
						{
							OFFSET -8.370511 0.000000 0.000000 
							CHANNELS 3 Zrotation Yrotation Xrotation
							End Site
							{
								OFFSET -4.083176 0.000000 0.000000 
							}
						}
					}
				}
			}
		}
	}
	JOINT lThigh
	{
		OFFSET 5.308129 -1.633274 1.361059 
		CHANNELS 3 Xrotation Zrotation Yrotation
		JOINT lShin
		{
			OFFSET -2.041588 -20.007561 0.000000 
			CHANNELS 3 Xrotation Zrotation Yrotation
			JOINT lFoot
			{
				OFFSET 0.000000 -19.190928 -1.224953 
				CHANNELS 3 Xrotation Yrotation Zrotation
				End Site
				{
					OFFSET 0.000000 -2.449906 4.627600 
				}
			}
		}
	}
	JOINT rThigh
	{
		OFFSET -5.308129 -1.633274 1.361059 
		CHANNELS 3 Xrotation Zrotation Yrotation
		JOINT rShin
		{
			OFFSET 2.041588 -20.007561 0.000000 
			CHANNELS 3 Xrotation Zrotation Yrotation
			JOINT rFoot
			{
				OFFSET 0.000000 -19.190928 -1.224953 
				CHANNELS 3 Xrotation Yrotation Zrotation
				End Site
				{
					OFFSET 0.000000 -2.449906 4.627600 
				}
			}
		}
	}
}
MOTION
Frames: 16
Frame Time: 0.033333
-13.970053 51.797821 -42.575272 -11.787109 1.572266 -170.868881 33.245865 -6.560368 -9.365304 -15.527344 8.212891 1.298828 51.063168 8.107644 2.471410 -32.490238 -4.677734 9.296876 2.000000 -2.000000 0.000000 -83.554688 5.703125 4.414062 -66.947678 -1.874389 -2.841206 -87.754326 40.359268 -103.429810 -2.000000 2.000000 0.000000 62.958984 -31.923826 18.027342 100.812241 0.433359 -3.805096 -6.247993 -97.702797 25.043194 -19.282270 18.909353 10.825203 37.623375 -4.396523 -3.028596 3.301842 10.451735 -4.893080 -23.326378 -14.047914 -22.537050 26.886726 4.563637 2.234751 -0.021467 -11.122800 8.518179 
-13.865371 51.747391 -43.356060 -11.953125 1.572266 -171.210678 33.058872 -5.857607 -9.152245 -15.517580 8.554688 1.308594 51.063168 8.107644 2.471410 -32.304688 -4.687500 9.101563 2.000000 -2.000000 0.000000 -83.593750 6.669922 3.311682 -67.129227 -2.268157 -3.053437 -88.775726 40.145573 -103.540596 -2.000000 2.000000 0.000000 61.269527 -31.054688 18.984375 100.983025 0.238028 -3.640255 -8.550231 -97.332314 27.775446 -20.322046 18.915653 12.759618 37.964443 -4.207391 -3.316319 2.066147 10.938293 -4.977824 -23.032976 -13.734770 -22.801298 27.416132 4.534918 2.271346 -1.210104 -10.901502 8.259876 
-13.838215 51.629742 -44.159561 -12.158202 1.572266 -171.738022 32.870609 -4.926711 -9.019428 -15.322268 8.896485 1.337891 51.063168 8.107644 2.471410 -32.128906 -4.677734 9.061704 2.000000 -2.000000 0.000000 -84.306641 7.568360 3.388672 -67.301697 -2.016526 -2.930746 -88.965454 39.030449 -103.849777 -2.000000 2.000000 0.000000 59.384766 -30.585936 20.185547 101.158813 0.228278 -3.640815 -6.836167 -97.763786 26.569090 -21.754194 19.125801 13.867624 37.947002 -4.083682 -3.255428 1.211694 10.160993 -5.887357 -22.488449 -13.698890 -22.881252 27.766277 4.510492 2.294429 -3.294115 -10.312802 6.884251 
-13.922278 51.512070 -44.907749 167.519547 178.388672 7.558869 32.681427 -4.223626 -8.808165 -15.302735 9.082031 1.337891 51.063168 8.107644 2.471410 -31.962894 -4.687500 8.876953 2.000000 -2.000000 0.000000 -84.541016 7.919921 3.702517 -67.477501 -2.006777 -2.931311 -88.556122 38.604641 -103.434433 -2.000000 2.000000 0.000000 57.685543 -29.853518 21.162107 101.334869 0.219090 -3.651122 -8.993988 -97.745331 29.175375 -23.061567 19.553703 15.146375 37.622944 -4.295335 -3.287181 0.612401 8.758949 -5.606706 -22.098530 -13.670367 -23.104345 27.945436 4.501253 2.316334 -4.897523 -9.287338 6.661635 
-14.137072 51.512070 -45.556816 167.343765 178.564453 6.679932 32.690300 -3.437728 -8.763464 -15.283204 9.433595 1.357422 51.063168 8.107644 2.471410 -31.777346 -4.873046 8.486328 2.000000 -2.000000 0.000000 -84.736328 7.910156 3.271484 -67.477501 -2.006777 -2.931311 -88.595047 38.303345 -103.159691 -2.000000 2.000000 0.000000 56.689453 -29.140627 21.547977 101.691452 0.385172 -3.817636 -8.856169 -97.783630 28.784349 -24.227636 19.852285 15.963231 36.729458 -4.275208 -3.226616 -0.287281 8.090994 -5.873380 -22.027067 -13.968759 -22.557650 28.480715 4.496065 2.349099 -5.350121 -8.828876 6.812885 
-14.474446 51.478458 -46.173424 167.167984 178.945313 5.625180 32.508240 -2.752713 -8.559653 -15.097657 9.589845 1.201172 51.063168 8.107644 2.471410 -31.611328 -5.048828 8.299922 2.000000 -2.000000 0.000000 -84.853516 7.734375 3.369141 -67.299545 -1.855456 -2.852081 -88.467926 37.580910 -102.898880 -2.000000 2.000000 0.000000 56.054691 -28.574219 21.821501 101.867508 0.385732 -3.827381 -8.293211 -97.751205 28.440119 -25.321362 20.047585 16.299051 35.642761 -4.317877 -3.159227 -0.793849 6.369094 -6.399168 -21.860405 -13.967757 -22.219704 28.643517 4.461538 2.364190 -5.555290 -7.879172 6.394428 
-14.874033 51.470062 -46.716705 166.992203 179.121094 4.218900 32.524288 -2.108610 -8.610690 -15.097657 9.765624 1.367188 51.063168 8.107644 2.471410 -31.621096 -5.400390 8.125000 2.000000 -2.000000 0.000000 -85.009766 7.519531 3.526668 -67.123749 -1.865205 -2.851516 -88.057968 37.977707 -102.689240 -2.000000 2.000000 0.000000 55.166016 -28.496094 22.001951 102.038010 0.189841 -3.652803 -11.248387 -97.633102 31.439558 -25.739202 20.122656 17.769918 33.919827 -4.421249 -3.008764 -1.221158 5.325200 -6.330421 -21.703962 -14.357805 -22.203091 28.793530 3.837123 2.539137 -5.174845 -6.643164 5.743942 
-15.411757 51.444839 -47.216026 166.816422 179.472656 2.978606 32.533752 -1.714320 -8.578290 -14.912109 9.921875 1.396484 51.063168 8.107644 2.471410 -31.630859 -5.576172 7.772489 2.000000 -2.000000 0.000000 -85.214844 6.914062 4.189453 -66.947678 -1.874389 -2.841206 -87.635086 37.061474 -102.346222 -2.000000 2.000000 0.000000 53.974606 -28.925783 22.626953 102.208519 0.179311 -3.809882 -12.487617 -97.623245 33.006805 -26.179573 20.036093 18.041351 31.651363 -4.600736 -2.539653 -0.907528 4.377903 -6.759003 -22.113892 -14.972890 -21.167150 29.494915 3.993256 2.601027 -4.425914 -6.012108 5.159498 
-16.074036 51.436436 -47.674381 166.816422 179.824219 1.572296 32.524273 -1.417669 -8.395241 -14.892579 10.107423 1.230469 51.063168 8.107644 2.471410 -31.630861 -5.927734 7.246095 2.000000 -2.000000 0.000000 -85.419922 6.298829 4.853516 -66.949570 -2.025146 -2.910690 -86.731712 37.301666 -101.514519 -2.000000 2.000000 0.000000 52.568359 -28.828129 22.885916 102.223328 0.355130 -3.975800 -12.918793 -98.018295 33.303913 -25.586212 19.756338 19.417299 27.222872 -4.648191 -2.494365 0.098226 4.005409 -6.675171 -21.988665 -15.600499 -19.702539 29.697983 4.412654 2.428254 -3.950033 -5.812467 4.338591 
-16.826796 51.436436 -48.075951 166.640640 180.000000 0.166016 32.710377 -1.266469 -8.297438 -14.716797 10.107838 1.261317 51.063168 8.107644 2.471410 -31.660160 -6.455078 6.894531 2.000000 -2.000000 0.000000 -86.171875 5.566406 4.659151 -66.949570 -2.025146 -2.910690 -86.293365 37.696762 -101.276283 -2.000000 2.000000 0.000000 51.806641 -29.140627 23.398438 102.389572 0.180092 -3.653364 -16.483154 -98.279327 37.265705 -24.442841 19.110510 20.059940 22.448219 -4.911601 -2.161387 0.598255 3.514289 -6.780881 -22.145681 -16.324251 -18.851997 30.228495 4.383906 2.648363 -3.071700 -4.798535 3.836573 
-17.577337 51.419636 -48.411964 166.455078 -179.667969 -1.435603 32.710377 -1.266469 -8.297438 -14.716797 10.107838 1.261317 51.063168 8.107644 2.471410 -31.679691 -6.806641 6.718751 2.000000 -2.000000 0.000000 -86.386719 4.785156 4.190329 -66.949570 -2.025146 -2.910690 -86.103943 38.449398 -100.658073 -2.000000 2.000000 0.000000 51.005859 -29.345703 23.710939 102.389572 0.180092 -3.653364 -19.709667 -98.457298 40.395821 -23.994076 18.632725 20.781050 18.758921 -4.963768 -1.843538 1.175290 2.480227 -7.008310 -22.810894 -17.204859 -17.775562 30.403652 4.374137 2.485357 -1.279003 -3.529939 3.736107 
-18.254301 51.369202 -48.759575 166.455078 -179.326172 -2.841912 33.061470 -1.572266 -8.483894 -14.541017 9.921875 1.289063 51.063168 8.107644 2.471410 -31.845705 -6.630859 6.572266 2.000000 -2.000000 0.000000 -86.562500 4.052734 4.317098 -66.785660 -2.195964 -2.988789 -85.698997 38.288277 -100.313202 -2.000000 2.000000 0.000000 51.044922 -29.355471 23.100681 102.570366 0.346174 -3.819872 -23.115896 -98.479286 43.701065 -23.591427 18.209063 21.057419 16.487616 -5.029452 -1.615770 0.057104 1.667694 -6.961276 -22.993544 -17.952868 -16.227610 30.942465 4.452600 2.092686 -0.324482 -2.948853 3.808145 
-18.848320 51.234737 -49.161385 166.279297 -178.974609 -4.424003 33.394630 -2.355077 -8.536223 -14.384766 9.736328 1.484375 51.063168 8.107644 2.471410 -32.021488 -6.269531 6.230470 2.000000 -2.000000 0.000000 -86.562500 3.261719 4.688056 -66.773788 -2.025146 -2.910690 -85.439362 38.547092 -100.051239 -2.000000 2.000000 0.000000 51.250000 -29.626862 23.336643 102.565353 0.170342 -3.653925 -23.705820 -98.882126 44.587078 -24.345705 18.613327 21.721617 19.276785 -5.133523 -1.756445 -0.561110 2.016433 -7.555017 -23.543310 -18.523270 -15.860616 31.096970 4.344862 2.563131 -0.309800 -1.940934 3.137351 
-19.386784 51.083458 -49.508766 166.279297 -178.623047 -5.654532 33.743252 -3.198106 -8.819427 -14.228516 9.355469 1.328125 51.063168 8.107644 2.471410 -32.177734 -5.917969 6.259875 2.000000 -2.000000 0.000000 -85.966797 2.294922 5.342190 -66.421913 -2.044080 -2.899814 -85.332436 38.237148 -100.612885 -2.000000 2.000000 0.000000 52.333981 -29.433594 22.498522 102.565353 0.170342 -3.653925 -28.191860 -99.241592 48.976006 -24.936979 18.469152 22.376406 21.765638 -5.038903 -1.961197 -0.797679 1.926286 -8.031507 -23.882309 -18.685562 -15.751789 31.213839 3.139197 2.328212 -0.154040 -0.343238 2.795286 
-19.902407 51.007828 -49.709476 166.113281 -178.271484 -6.885060 34.093628 -4.523519 -8.982972 -14.423828 9.033204 1.476143 51.063168 8.107644 2.471410 -32.343750 -5.556641 6.297883 2.000000 -2.000000 0.000000 -85.585938 1.542969 6.162109 -66.069778 -2.052701 -2.879758 -85.246994 38.006828 -101.025551 -2.000000 2.000000 0.000000 52.236328 -30.175779 23.496096 102.570648 0.356483 -3.829058 -31.567820 -99.620789 52.023254 -25.251699 18.619337 22.668686 23.002674 -5.059668 -2.089279 -0.703956 2.328228 -8.388947 -24.586269 -19.595078 -13.944923 31.454493 4.335675 2.550402 0.364090 -0.767049 1.808805 
-20.364092 51.049843 -49.714668 -14.062500 -1.933594 171.884445 34.631134 -5.857607 -9.152246 -14.101563 8.652345 1.524907 51.063168 8.107644 2.471410 -32.509766 -5.205078 5.957031 2.000000 -2.000000 0.000000 -84.814453 0.664063 7.744140 -65.539970 -1.920311 -2.789652 -84.715714 37.113556 -100.723083 -2.000000 2.000000 0.000000 52.636715 -30.527346 24.765625 102.213791 0.180092 -3.653364 -36.421421 -100.483391 56.560513 -25.535994 18.533411 22.583099 23.698891 -4.799132 -2.234659 -0.408368 3.288229 -9.088435 -25.349331 -19.850864 -13.272866 31.294544 4.345025 2.569288 1.812236 -0.324588 1.408942 
